<svg width="132" height="54" viewBox="0 0 132 54" fill="none" xmlns="http://www.w3.org/2000/svg">
<path d="M23.792 53.284C23.792 53.408 23.7093 53.4493 23.544 53.408C23.3787 53.408 23.2547 53.346 23.172 53.222C22.6347 52.6847 22.2213 51.796 21.932 50.556C21.684 49.316 21.5187 48.014 21.436 46.65C21.3947 45.3273 21.3947 44.2113 21.436 43.302C20.568 43.5087 19.576 43.736 18.46 43.984C17.344 44.2733 16.2073 44.542 15.05 44.79C13.8927 45.0793 12.8593 45.3067 11.95 45.472C11.082 45.6787 10.462 45.8027 10.09 45.844C9.13933 45.9267 8.06467 46.03 6.866 46.154C5.70867 46.278 4.634 46.34 3.642 46.34C2.36067 46.34 1.472 46.216 0.976 45.968C0.562667 45.844 0.356 45.472 0.356 44.852C0.356 44.2733 0.521334 43.6327 0.852 42.93C1.18267 42.2273 1.534 41.752 1.906 41.504C2.48467 41.132 3.12533 41.008 3.828 41.132C4.48933 41.2973 5.10933 41.4213 5.688 41.504C5.936 41.5867 6.45267 41.6693 7.238 41.752C8.06467 41.8347 8.99467 41.9173 10.028 42C11.0613 42.124 12.0533 42.2273 13.004 42.31C13.9547 42.3927 14.678 42.4547 15.174 42.496C15.794 42.5373 16.7033 42.5167 17.902 42.434C19.1007 42.3513 20.2993 42.248 21.498 42.124C21.7047 40.1813 22.2213 37.9287 23.048 35.366C23.8747 32.8447 24.8667 30.22 26.024 27.492C27.2227 24.764 28.5247 22.036 29.93 19.308C31.3353 16.6213 32.6993 14.1413 34.022 11.868C35.3033 9.59467 36.4813 7.652 37.556 6.04C38.6307 4.38667 39.4573 3.25 40.036 2.63C40.7387 1.92733 41.3587 1.41067 41.896 1.08C40.6147 1.16266 39.1887 1.39 37.618 1.762C36.0473 2.17533 34.4353 2.73333 32.782 3.436C31.1287 4.09733 29.5373 4.924 28.008 5.916C26.4373 6.908 25.0527 8.024 23.854 9.264C22.6553 10.5453 21.684 11.93 20.94 13.418C20.196 14.906 19.824 16.518 19.824 18.254C19.824 18.6673 19.886 19.1633 20.01 19.742C20.134 20.2793 20.5267 20.6927 21.188 20.982C21.3947 21.0647 21.4567 21.168 21.374 21.292C21.3327 21.3747 21.2707 21.416 21.188 21.416C20.6507 21.416 19.9687 21.2507 19.142 20.92C18.3567 20.548 17.654 19.99 17.034 19.246C16.414 18.502 16.104 17.5307 16.104 16.332C16.104 14.3893 16.6413 12.6533 17.716 11.124C18.7493 9.59467 20.072 8.272 21.684 7.156C23.296 5.99866 25.0733 5.02733 27.016 4.242C28.9173 3.45667 30.736 2.79533 32.472 2.258C33.8773 1.84467 35.262 1.49333 36.626 1.204C37.99 0.914665 38.9407 0.749332 39.478 0.707999C39.85 0.666664 40.2013 0.62533 40.532 0.583997C40.8627 0.542665 41.1933 0.480665 41.524 0.398L43.012 0.211998C43.3013 0.211998 43.508 0.294665 43.632 0.459999C44.252 0.335998 44.7893 0.273998 45.244 0.273998C46.484 0.273998 47.104 0.687331 47.104 1.514C47.104 2.17533 46.6493 2.94 45.74 3.808C45.1613 4.34533 44.4587 5.15133 43.632 6.226C42.8467 7.25933 41.9993 8.458 41.09 9.822C40.222 11.186 39.354 12.5707 38.486 13.976C37.618 15.3813 36.812 16.704 36.068 17.944C34.7867 20.2173 33.4433 22.6767 32.038 25.322C30.6327 27.926 29.2893 30.6333 28.008 33.444C26.7267 36.2547 25.652 39.0447 24.784 41.814L25.342 41.628L25.652 41.504C26.148 41.38 26.5613 41.2973 26.892 41.256C27.264 41.2147 27.5533 41.194 27.76 41.194C28.132 41.194 28.318 41.256 28.318 41.38C28.318 41.4627 28.0907 41.6073 27.636 41.814C27.2227 42.0207 26.5613 42.2067 25.652 42.372L24.536 42.558C24.1227 44.0873 23.792 45.5753 23.544 47.022C23.296 48.4687 23.172 49.8533 23.172 51.176C23.172 52.1267 23.3373 52.7673 23.668 53.098L23.792 53.284ZM40.407 43.86C38.6297 43.86 37.369 43.3227 36.625 42.248C35.881 41.1733 35.509 39.8093 35.509 38.156C35.509 36.9573 35.6537 35.6553 35.943 34.25C36.2737 32.8033 36.6664 31.4187 37.121 30.096C37.617 28.7733 38.0924 27.6573 38.547 26.748C39.3737 25.0533 40.3657 23.338 41.523 21.602C42.6804 19.8247 43.9204 18.2127 45.243 16.766C46.5657 15.3193 47.9297 14.162 49.335 13.294C50.7817 12.3847 52.187 11.93 53.551 11.93C54.7497 11.93 55.6384 12.364 56.217 13.232C56.837 14.0587 57.147 15.03 57.147 16.146C57.147 17.3447 56.8164 18.4193 56.155 19.37C54.791 21.354 53.799 22.346 53.179 22.346C52.9724 22.346 52.869 22.2013 52.869 21.912C52.869 21.6227 53.0344 21.044 53.365 20.176C53.5304 19.804 53.737 19.2667 53.985 18.564C54.233 17.82 54.4397 17.076 54.605 16.332C54.8117 15.5467 54.8944 14.8647 54.853 14.286C54.729 14.2447 54.543 14.224 54.295 14.224C53.427 14.224 52.4764 14.5753 51.443 15.278C50.451 15.9807 49.4384 16.89 48.405 18.006C47.3717 19.122 46.421 20.3 45.553 21.54C44.685 22.7387 43.9617 23.8547 43.383 24.888C42.9284 25.7147 42.4324 26.7273 41.895 27.926C41.3577 29.0833 40.841 30.3233 40.345 31.646C39.8904 32.9273 39.539 34.1053 39.291 35.18C39.1257 35.7587 39.0017 36.3373 38.919 36.916C38.8364 37.4947 38.795 38.0527 38.795 38.59C38.795 39.4993 38.9604 40.264 39.291 40.884C39.663 41.504 40.283 41.814 41.151 41.814C42.5977 41.814 44.003 41.4833 45.367 40.822C46.7724 40.1607 48.095 39.3133 49.335 38.28C50.575 37.2467 51.7117 36.1927 52.745 35.118C53.613 34.25 54.3777 33.3613 55.039 32.452C55.163 32.328 55.2664 32.266 55.349 32.266C55.597 32.266 55.721 32.452 55.721 32.824C55.721 33.0307 55.6384 33.2167 55.473 33.382L52.745 36.606C51.877 37.6393 50.761 38.7347 49.397 39.892C48.033 41.008 46.5657 41.938 44.995 42.682C43.4244 43.4673 41.895 43.86 40.407 43.86ZM59.3684 42.248C57.963 42.248 56.785 41.6487 55.8344 40.45C54.925 39.2513 54.4704 37.722 54.4704 35.862C54.4704 34.374 54.7184 32.9067 55.2144 31.46C55.7104 30.0547 56.3717 28.7113 57.1984 27.43C58.0664 26.1487 59.0377 24.95 60.1124 23.834C61.5177 22.3873 63.109 21.1267 64.8864 20.052C66.705 18.9773 68.3584 18.44 69.8464 18.44C71.0037 18.44 71.8924 18.7293 72.5124 19.308C73.1737 19.8453 73.5044 20.5067 73.5044 21.292C73.5044 21.788 73.339 22.3253 73.0084 22.904C74.083 23.028 75.137 23.09 76.1704 23.09C76.9557 23.09 77.741 23.0487 78.5264 22.966C79.3117 22.8833 80.097 22.7593 80.8824 22.594H81.1304C81.461 22.594 81.6264 22.6767 81.6264 22.842C81.6264 23.0073 81.4404 23.152 81.0684 23.276C80.655 23.4413 79.973 23.6067 79.0224 23.772C78.0717 23.9373 77.0797 24.082 76.0464 24.206C75.013 24.2887 74.083 24.33 73.2564 24.33C72.967 24.33 72.719 24.33 72.5124 24.33C72.3057 24.33 72.1197 24.3093 71.9544 24.268L71.3344 24.578C71.8304 25.2807 72.0784 26.252 72.0784 27.492C72.0784 29.1453 71.665 30.84 70.8384 32.576C70.053 34.2707 68.999 35.862 67.6764 37.35C66.395 38.7967 65.0104 39.9747 63.5224 40.884C62.0757 41.7933 60.691 42.248 59.3684 42.248ZM59.9264 40.76C61.0424 40.76 62.1377 40.3673 63.2124 39.582C64.287 38.7553 65.2584 37.7013 66.1264 36.42C67.0357 35.0973 67.7797 33.692 68.3584 32.204C68.9784 30.6747 69.3917 29.2073 69.5984 27.802C69.6397 27.554 69.6604 27.3267 69.6604 27.12C69.6604 26.872 69.6604 26.6447 69.6604 26.438C69.6604 26.066 69.6397 25.7353 69.5984 25.446C69.557 25.1153 69.4744 24.8673 69.3504 24.702C69.2677 24.702 69.2057 24.6813 69.1644 24.64C68.6684 24.5573 68.2964 24.4333 68.0484 24.268C67.8417 24.1027 67.5937 23.9167 67.3044 23.71C67.139 23.5033 67.0564 23.2553 67.0564 22.966C67.0564 22.6767 67.1597 22.4493 67.3664 22.284C67.6144 22.1187 67.883 22.0773 68.1724 22.16C69.2057 22.3667 70.3217 22.5527 71.5204 22.718C71.9337 22.0153 72.1404 21.3747 72.1404 20.796C72.1404 19.804 71.3964 19.308 69.9084 19.308C68.999 19.308 68.0484 19.6593 67.0564 20.362C66.1057 21.0233 65.155 21.912 64.2044 23.028C63.2537 24.1027 62.3444 25.3013 61.4764 26.624C60.6084 27.9053 59.8644 29.166 59.2444 30.406C58.831 31.2327 58.459 32.2453 58.1284 33.444C57.839 34.6427 57.6944 35.8 57.6944 36.916C57.6944 37.9493 57.8597 38.8587 58.1904 39.644C58.5624 40.388 59.141 40.76 59.9264 40.76ZM87.7029 42.062C87.0002 42.062 86.5042 41.7933 86.2149 41.256C85.9255 40.7187 85.7809 40.078 85.7809 39.334C85.7809 38.0113 86.1322 36.5027 86.8349 34.808C87.5789 33.1133 88.4262 31.3773 89.3769 29.6C90.3275 27.8227 91.1542 26.1487 91.8569 24.578C92.6009 22.966 92.9729 21.602 92.9729 20.486C92.9729 19.9487 92.8695 19.5147 92.6629 19.184C92.4975 18.8533 92.2289 18.688 91.8569 18.688C91.3609 18.688 90.7615 18.9567 90.0589 19.494C89.2735 20.0313 88.3849 20.92 87.3929 22.16L85.0989 25.012C83.9002 26.5 82.6809 28.0913 81.4409 29.786C80.2422 31.4393 79.1469 32.9893 78.1549 34.436C77.2042 35.8827 76.5015 37.04 76.0469 37.908C75.6749 38.5693 75.2409 38.9 74.7449 38.9C74.4555 38.9 74.1869 38.7553 73.9389 38.466C73.6909 38.1767 73.5669 37.8047 73.5669 37.35C73.5669 37.0607 73.6289 36.73 73.7529 36.358C75.1995 33.5887 76.5635 30.6333 77.8449 27.492C79.1675 24.3507 80.4695 21.4987 81.7509 18.936C82.1229 18.2333 82.7429 17.634 83.6109 17.138C84.4789 16.6007 85.2435 16.332 85.9049 16.332C86.5249 16.332 86.8349 16.5593 86.8349 17.014C86.8349 17.262 86.6489 17.7373 86.2769 18.44C85.8222 19.1427 85.2642 20.052 84.6029 21.168C83.9415 22.284 83.2595 23.462 82.5569 24.702C81.8542 25.942 81.1929 27.12 80.5729 28.236C79.9942 29.352 79.5602 30.2613 79.2709 30.964C79.7255 30.344 80.3455 29.414 81.1309 28.174C81.9575 26.934 83.0735 25.4873 84.4789 23.834L86.4629 21.478C87.7855 19.9073 89.0049 18.8327 90.1209 18.254C91.2369 17.6753 92.2702 17.386 93.2209 17.386C93.9649 17.386 94.6055 17.572 95.1429 17.944C95.6802 18.316 95.9489 18.9567 95.9489 19.866C95.9489 20.9407 95.7215 22.0153 95.2669 23.09C94.8122 24.1233 94.4402 24.95 94.1509 25.57C93.8615 26.2313 93.4482 27.1407 92.9109 28.298C92.3735 29.4553 91.8362 30.6953 91.2989 32.018C90.7615 33.3407 90.3069 34.5807 89.9349 35.738C89.5629 36.8953 89.3769 37.784 89.3769 38.404C89.3769 38.9413 89.5422 39.21 89.8729 39.21C90.2862 39.21 90.8235 39.0033 91.4849 38.59C92.1875 38.1353 92.8695 37.6393 93.5309 37.102C94.2335 36.5647 94.7709 36.1307 95.1429 35.8C96.5069 34.56 97.8915 33.1133 99.2969 31.46C99.5035 31.212 99.6689 31.088 99.7929 31.088C99.9169 31.088 99.9789 31.212 99.9789 31.46C99.9789 31.584 99.9169 31.7493 99.7929 31.956C99.7102 32.1627 99.6069 32.39 99.4829 32.638C99.2349 33.0513 98.8422 33.6093 98.3049 34.312C97.7675 34.9733 97.2095 35.614 96.6309 36.234C95.7629 37.1847 94.7915 38.094 93.7169 38.962C92.6835 39.83 91.5262 40.6153 90.2449 41.318C89.9142 41.4833 89.6042 41.628 89.3149 41.752C89.0669 41.8347 88.8602 41.8967 88.6949 41.938C88.5295 41.9793 88.3642 42 88.1989 42C88.0335 42.0413 87.8682 42.062 87.7029 42.062ZM110.715 14.906C109.64 14.906 109.103 14.3893 109.103 13.356C109.103 12.736 109.33 12.2193 109.785 11.806C110.24 11.3513 110.736 11.124 111.273 11.124C111.81 11.124 112.224 11.31 112.513 11.682C112.844 12.054 112.968 12.5087 112.885 13.046C112.761 13.5833 112.492 14.038 112.079 14.41C111.707 14.7407 111.252 14.906 110.715 14.906ZM100.671 42C98.5217 42 97.447 40.6567 97.447 37.97C97.447 37.3913 97.509 36.73 97.633 35.986C97.7984 35.118 98.1084 34.0847 98.563 32.886C99.059 31.646 99.5964 30.4267 100.175 29.228C100.795 27.988 101.353 26.934 101.849 26.066C102.262 25.4047 102.738 24.6193 103.275 23.71C103.812 22.8007 104.329 21.9533 104.825 21.168C105.321 20.3827 105.631 19.866 105.755 19.618C106.003 19.0807 106.499 18.6673 107.243 18.378C107.987 18.0473 108.648 17.882 109.227 17.882C109.888 17.882 110.219 18.068 110.219 18.44C110.219 18.688 110.136 18.9153 109.971 19.122C109.186 20.4033 108.256 21.8913 107.181 23.586C106.148 25.2807 105.135 27.0167 104.143 28.794C103.151 30.5713 102.324 32.266 101.663 33.878C101.002 35.49 100.671 36.8747 100.671 38.032C100.671 38.652 100.774 39.148 100.981 39.52C101.229 39.892 101.663 40.078 102.283 40.078C102.944 40.078 103.688 39.768 104.515 39.148C105.383 38.4867 106.21 37.7633 106.995 36.978C107.822 36.1513 108.442 35.5107 108.855 35.056L110.095 33.754C110.302 33.5473 110.488 33.3407 110.653 33.134C110.818 32.886 110.984 32.6587 111.149 32.452C111.273 32.328 111.376 32.266 111.459 32.266C111.707 32.266 111.831 32.452 111.831 32.824C111.831 33.0307 111.748 33.2167 111.583 33.382C111.128 33.9607 110.674 34.5187 110.219 35.056C109.764 35.5933 109.289 36.1307 108.793 36.668C107.76 37.908 106.561 39.1067 105.197 40.264C103.833 41.4213 102.324 42 100.671 42ZM115.001 43.86C113.223 43.86 111.963 43.3227 111.219 42.248C110.475 41.1733 110.103 39.8093 110.103 38.156C110.103 36.9573 110.247 35.6553 110.537 34.25C110.867 32.8033 111.26 31.4187 111.715 30.096C112.211 28.7733 112.686 27.6573 113.141 26.748C113.967 25.0533 114.959 23.338 116.117 21.602C117.274 19.8247 118.514 18.2127 119.837 16.766C121.159 15.3193 122.523 14.162 123.929 13.294C125.375 12.3847 126.781 11.93 128.145 11.93C129.343 11.93 130.232 12.364 130.811 13.232C131.431 14.0587 131.741 15.03 131.741 16.146C131.741 17.3447 131.41 18.4193 130.749 19.37C129.385 21.354 128.393 22.346 127.773 22.346C127.566 22.346 127.463 22.2013 127.463 21.912C127.463 21.6227 127.628 21.044 127.959 20.176C128.124 19.804 128.331 19.2667 128.579 18.564C128.827 17.82 129.033 17.076 129.199 16.332C129.405 15.5467 129.488 14.8647 129.447 14.286C129.323 14.2447 129.137 14.224 128.889 14.224C128.021 14.224 127.07 14.5753 126.037 15.278C125.045 15.9807 124.032 16.89 122.999 18.006C121.965 19.122 121.015 20.3 120.147 21.54C119.279 22.7387 118.555 23.8547 117.977 24.888C117.522 25.7147 117.026 26.7273 116.489 27.926C115.951 29.0833 115.435 30.3233 114.939 31.646C114.484 32.9273 114.133 34.1053 113.885 35.18C113.719 35.7587 113.595 36.3373 113.513 36.916C113.43 37.4947 113.389 38.0527 113.389 38.59C113.389 39.4993 113.554 40.264 113.885 40.884C114.257 41.504 114.877 41.814 115.745 41.814C117.191 41.814 118.597 41.4833 119.961 40.822C121.366 40.1607 122.689 39.3133 123.929 38.28C125.169 37.2467 126.305 36.1927 127.339 35.118C128.207 34.25 128.971 33.3613 129.633 32.452C129.757 32.328 129.86 32.266 129.943 32.266C130.191 32.266 130.315 32.452 130.315 32.824C130.315 33.0307 130.232 33.2167 130.067 33.382L127.339 36.606C126.471 37.6393 125.355 38.7347 123.991 39.892C122.627 41.008 121.159 41.938 119.589 42.682C118.018 43.4673 116.489 43.86 115.001 43.86Z" fill="#383434"/>
</svg>
